<svg xmlns="http://www.w3.org/2000/svg" viewBox="0 0 512 512">
    <rect width="512" height="512" rx="64" fill="#0a0a0b"/>
    <path d="M0 64C0 28.7 28.7 0 64 0H448c35.3 0 64 28.7 64 64V448c0 35.3-28.7 64-64 64H64c-35.3 0-64-28.7-64-64V64zM152.4 164.4c-9.1 11-7.5 27.4 3.5 36.4L230.1 256l-74.2 55.1c-11 9.1-12.6 25.4-3.5 36.4s25.4 12.6 36.4 3.5l96-71.3c7.2-5.4 11.5-13.9 11.5-23.1s-4.2-17.7-11.5-23.1l-96-71.1c-11-9.1-27.4-7.5-36.4 3.5zM256 328c0 13.3 10.7 24 24 24h96c13.3 0 24-10.7 24-24s-10.7-24-24-24H280c-13.3 0-24 10.7-24 24z" fill="#00ff41"/>
</svg>